# Blender 4.1.0
# www.blender.org
mtllib bevelled_corner_c2.mtl
g bevelledcornerc2_face0-texture:1_Bevelled_Corner_C2
v 0.250000 -0.500000 -0.500000
v 0.500000 -0.500000 -0.250000
v 0.500000 -0.500000 0.500000
v -0.500000 -0.500000 0.500000
v -0.500000 -0.500000 -0.500000
v 0.500000 0.500000 0.000000
v 0.500000 0.500000 0.500000
v 0.000000 0.500000 -0.500000
v -0.500000 0.500000 -0.500000
v -0.500000 0.500000 0.500000
vn -0.0000 -1.0000 -0.0000
vn 1.0000 -0.0000 -0.0000
vn -0.0000 -0.0000 -1.0000
vn -0.0000 1.0000 -0.0000
vn -1.0000 -0.0000 -0.0000
vn -0.0000 -0.0000 1.0000
vt 1.000000 1.000000
vt 0.249364 1.000000
vt 1.000000 0.000000
vt 0.000000 0.750636
vt 0.000000 0.000000
vt 0.750636 1.000000
vt 0.501272 0.000000
vt 0.000000 1.000000
vt 0.249364 1.000000
vt 1.000000 1.000000
vt 0.498728 0.000000
vt 1.000000 0.000000
vt 0.498728 1.000000
vt 0.000000 0.501272
vt 0.000000 1.000000
s 0
usemtl Main.006
f 5/1/1 1/2/1 4/3/1
f 4/3/1 1/2/1 2/4/1
f 4/3/1 2/4/1 3/5/1
f 2/6/2 6/7/2 3/8/2
f 3/8/2 6/7/2 7/5/2
f 1/9/3 5/10/3 8/11/3
f 8/11/3 5/10/3 9/12/3
f 9/1/4 10/3/4 8/13/4
f 8/13/4 10/3/4 6/14/4
f 6/14/4 10/3/4 7/5/4
f 5/15/5 4/1/5 9/5/5
f 9/5/5 4/1/5 10/3/5
f 4/15/6 3/1/6 10/5/6
f 10/5/6 3/1/6 7/3/6
g bevelledcornerc2_face1-texture:2_Bevelled_Corner_C2.001
v 0.250000 -0.500000 -0.500000
v 0.500000 -0.500000 -0.250000
v 0.500000 0.500000 0.000000
v 0.000000 0.500000 -0.500000
v 0.375000 -0.500000 -0.375000
v 0.250000 0.500000 -0.250000
vn 0.6963 0.1741 -0.6963
vt 0.687500 0.000000
vt 0.500000 1.000000
vt 0.687500 1.000000
vt 0.312500 0.000000
vt 0.625000 0.000000
vt 0.312500 1.000000
vt 0.375000 0.000000
s 0
usemtl Main.006
f 16/16/7 12/17/7 15/18/7
f 16/19/7 11/17/7 14/20/7
f 16/19/7 15/21/7 11/17/7
f 16/16/7 13/22/7 12/17/7
