# Blender 4.1.0
# www.blender.org
mtllib bevelled_corner_c4.mtl
g bevelledcornerc4_face0-texture:1_Bevelled_Corner_C4
v -0.500000 -0.500000 0.500000
v -0.500000 -0.500000 -0.500000
v -0.250000 -0.500000 -0.500000
v 0.500000 -0.500000 0.250000
v 0.500000 -0.500000 0.500000
v -0.500000 0.500000 0.500000
v -0.500000 0.500000 -0.500000
v -0.500000 0.500000 -0.500000
v 0.500000 0.500000 0.500000
v 0.500000 0.500000 0.500000
vn -0.0000 -1.0000 -0.0000
vn -1.0000 -0.0000 -0.0000
vn -0.0000 -0.0000 -1.0000
vn -0.0000 -0.0000 1.0000
vn 1.0000 -0.0000 -0.0000
vn -0.0000 1.0000 -0.0000
vt 1.000000 1.000000
vt 0.750000 1.000000
vt 1.000000 0.000000
vt 0.000000 0.250000
vt 0.000000 0.000000
vt 0.000000 1.000000
vt 0.250000 1.000000
s 0
usemtl Main.006
f 2/1/1 3/2/1 1/3/1
f 1/3/1 3/2/1 4/4/1
f 1/3/1 4/4/1 5/5/1
f 2/6/2 1/1/2 7/5/2
f 7/5/2 1/1/2 6/3/2
f 3/2/3 2/1/3 8/3/3
f 1/6/4 5/1/4 6/5/4
f 6/5/4 5/1/4 10/3/4
f 4/7/5 9/5/5 5/6/5
f 6/3/6 9/5/6 8/1/6
g bevelledcornerc4_face1-texture:2_Bevelled_Corner_C4.001
v -0.250000 -0.500000 -0.500000
v 0.500000 -0.500000 0.250000
v -0.500000 0.500000 -0.500000
v 0.500000 0.500000 0.500000
v 0.125000 -0.500000 -0.125000
v -0.000645 0.500000 -0.000645
vn 0.6963 0.1741 -0.6963
vt 0.312500 0.000000
vt 0.312500 1.000000
vt 0.812500 1.000000
vt 0.812500 1.000000
vt 1.000000 0.000000
vt 0.312500 0.000000
vt 0.687500 1.000000
vt 0.687500 0.000000
vt 0.187500 1.000000
vt 0.000000 0.000000
s 0
usemtl Main.006
f 16/8/7 15/9/7 11/10/7
f 11/11/7 13/12/7 16/13/7
f 15/14/7 16/15/7 12/16/7
f 14/17/7 12/16/7 16/15/7
