# Blender 4.1.0
# www.blender.org
mtllib diagonal_corner_c2.mtl
g diagonalcornerc2_face0-texture:1_diagonalcornerc2_face0-texture:0
v -0.500000 -0.500000 0.500000
v -0.500000 -0.500000 -0.250000
v -0.500000 -0.500000 -0.250000
v 0.250000 -0.500000 0.499364
v 0.250000 -0.500000 0.500000
v -0.500000 0.500000 0.000000
v -0.500000 0.500000 0.500000
v 0.000000 0.500000 0.500000
vn -0.0000 -1.0000 -0.0000
vn -1.0000 -0.0000 -0.0000
vn -0.0000 -0.0000 1.0000
vn -0.0000 1.0000 -0.0000
vt 1.000000 0.000000
vt 0.999152 0.750000
vt 0.250000 0.000848
vt 0.250000 1.000000
vt 1.000000 1.000000
vt 0.500000 0.000000
vt 1.000000 0.000000
vt 0.750000 1.000000
vt 0.500000 0.000000
vt 0.000000 1.000000
vt 0.000000 0.000000
vt 0.500000 0.000000
vt 1.000000 0.500000
vt 1.000000 0.000000
s 0
usemtl Main.006
f 1/1/1 3/2/1 4/3/1
f 2/4/2 1/5/2 6/6/2
f 6/6/2 1/5/2 7/7/2
f 5/8/3 8/9/3 1/10/3
f 1/10/3 8/9/3 7/11/3
f 8/12/4 6/13/4 7/14/4
g diagonalcornerc2_face1-texture:2_Bevelled_Corner_C3.004
v -0.500000 0.500000 -0.000000
v -0.500000 -0.500000 -0.250000
v -0.000000 0.500000 0.500000
v 0.250000 -0.500000 0.500000
v -0.125000 -0.500000 0.125000
v -0.250000 0.500000 0.250000
vn 0.6963 0.1741 -0.6963
vt 0.000000 1.000000
vt 0.375000 0.000000
vt 0.000000 0.001228
vt 1.000000 0.998772
vt 0.625000 0.001228
vt 0.500000 0.998772
vt 1.000000 0.000000
vt 0.625000 0.001228
vt 0.500000 1.000000
vt 0.375000 0.000000
s 0
usemtl Main.005
f 13/15/5 9/16/5 14/17/5
f 13/18/5 11/19/5 12/20/5
f 13/18/5 14/21/5 11/22/5
f 13/15/5 10/23/5 9/24/5
