# Blender 4.1.0
# www.blender.org
mtllib diagonal_corner_c4.mtl
g diagonalcornerc4_face0-texture:1_diagonalcornerc4_face0-texture:1
v -0.500000 -0.500000 0.250000
v -0.250000 -0.500000 0.500000
v -0.250000 -0.499997 0.499998
v -0.500000 -0.500000 0.500000
v -0.500000 -0.500000 0.250000
v -0.500000 0.500000 0.500000
vn -0.0000 -1.0000 -0.0000
vn -1.0000 -0.0000 -0.0000
vn -0.0000 -0.0000 1.0000
vt 1.000000 0.000000
vt 0.998092 0.250000
vt 0.750000 0.001908
vt 0.750000 1.000000
vt 1.000000 1.000000
vt 0.000000 1.000000
vt 0.250000 1.000000
vt 0.000000 0.000000
s 0
usemtl Main.001
f 4/1/1 1/2/1 2/3/1
f 5/4/2 4/5/2 6/1/2
f 4/6/3 3/7/3 6/8/3
g diagonalcornerc4_face1-texture:2_Bevelled_Corner_C1.004
v -0.500000 0.500000 0.500000
v -0.500000 -0.500000 0.250000
v -0.250000 -0.500000 0.500000
v -0.378227 -0.500000 0.371773
vn 0.6963 0.1741 -0.6963
vt 0.187500 1.000000
vt 0.000000 0.000000
vt 0.000000 1.000000
vt 1.000000 0.000000
vt 0.812500 1.000000
vt 1.000000 1.000000
s 1
usemtl Main.005
f 8/9/4 7/10/4 10/11/4
f 7/12/4 9/13/4 10/14/4
