# Blender 4.1.0
# www.blender.org
mtllib straight_corner_c4.mtl
g straightcornerc4_face0-texture:1_straightcornerc4_face0-texture:0
v -0.500000 -0.500000 0.250000
v -0.250000 -0.500000 0.250000
v -0.250000 -0.500000 0.500000
v -0.500000 -0.500000 0.500000
v -0.500000 0.500000 0.500000
vn -0.0000 -1.0000 -0.0000
vn -0.0000 -0.0000 1.0000
vn -1.0000 -0.0000 -0.0000
vt 1.000000 0.250000
vt 0.750000 0.250000
vt 1.000000 0.000000
vt 0.750000 0.000000
vt 0.000000 1.000000
vt 0.250000 1.000000
vt 0.000000 0.000000
vt 0.750000 1.000000
vt 1.000000 1.000000
vt 1.000000 0.000000
s 0
usemtl Main.006
f 1/1/1 2/2/1 4/3/1
f 4/3/1 2/2/1 3/4/1
f 4/5/2 3/6/2 5/7/2
f 1/8/3 4/9/3 5/10/3
g straightcornerc4_face1-texture:3_straightcornerc4_face0-texture:0.001
v -0.500000 -0.500000 0.250000
v -0.250000 -0.500000 0.250000
v -0.250000 -0.500000 0.500000
v -0.500000 0.500000 0.500000
vn 0.9701 0.2425 -0.0000
vn -0.0000 0.2425 -0.9701
vt 0.000000 1.000000
vt 0.250000 1.000000
vt 0.000000 0.000000
vt 0.750000 1.000000
vt 1.000000 1.000000
vt 1.000000 0.000000
s 0
usemtl Main.006
f 8/11/4 7/12/4 9/13/4
f 7/14/5 6/15/5 9/16/5
