# Blender 4.1.0
# www.blender.org
mtllib straight_corner_c1.mtl
g straightcornerc1_face0-texture:1_straightcornerc1_face0-texture:0
v 0.500000 -0.500000 0.500000
v -0.500000 -0.500000 0.500000
v -0.500000 -0.500000 -0.500000
v 0.500000 -0.500000 -0.500000
v -0.500000 0.500000 -0.250000
v 0.250000 0.500000 -0.250000
v -0.500000 0.500000 0.500000
v 0.250000 0.500000 0.500000
v 0.500000 -0.500000 0.500000
v -0.500000 -0.500000 0.500000
v -0.500000 -0.500000 -0.500000
v 0.500000 -0.500000 -0.500000
v -0.500000 0.500000 -0.250000
v 0.250000 0.500000 -0.250000
v -0.500000 0.500000 0.500000
v 0.250000 0.500000 0.500000
vn -0.0000 -1.0000 -0.0000
vn -0.0000 0.2425 -0.9701
vn -1.0000 -0.0000 -0.0000
vn -0.0000 -0.0000 1.0000
vn 0.9701 0.2425 -0.0000
vn -0.0000 1.0000 -0.0000
vt 1.000000 1.000000
vt 0.000000 1.000000
vt 1.000000 0.000000
vt 0.000000 0.000000
vt 1.000000 1.000000
vt 0.250000 1.000000
vt 1.000000 0.000000
vt 0.000000 1.000000
vt 0.750000 1.000000
vt 0.750000 1.000000
vt 0.750000 0.000000
vt 0.000000 0.750000
vt 0.750000 0.750000
vt 0.250000 0.000000
vt 1.000000 1.000000
vt 0.250000 0.000000
vt 1.000000 0.750000
vt 0.250000 0.750000
s 0
usemtl Main.006
f 1/1/1 2/2/1 4/3/1
f 4/3/1 2/2/1 3/4/1
f 5/5/2 6/6/2 3/7/2
f 3/7/2 6/6/2 4/4/2
f 7/1/3 5/6/3 2/3/3
f 2/3/3 5/6/3 3/4/3
f 7/8/4 2/4/4 8/9/4
f 8/9/4 2/4/4 1/3/4
f 8/2/5 1/4/5 6/10/5
f 6/10/5 1/4/5 4/3/5
f 7/4/6 8/11/6 5/12/6
f 5/12/6 8/11/6 6/13/6
f 9/4/1 10/3/1 12/2/1
f 12/2/1 10/3/1 11/1/1
f 15/3/3 13/14/3 10/1/3
f 10/1/3 13/14/3 11/2/3
f 15/4/4 10/8/4 16/11/4
f 16/11/4 10/8/4 9/15/4
f 15/3/6 16/16/6 13/17/6
f 13/17/6 16/16/6 14/18/6
g straightcornerc1_face1-texture:3_straightcornerc1_face0-texture:0.001
v 0.500000 -0.500000 0.500000
v -0.500000 -0.500000 -0.500000
v 0.500000 -0.500000 -0.500000
v -0.500000 0.500000 -0.250000
v 0.250000 0.500000 -0.250000
v 0.250000 0.500000 0.500000
vn -0.0000 0.2425 -0.9701
vn 0.9701 0.2425 -0.0000
vt 1.000000 0.000000
vt 0.250000 0.000000
vt 1.000000 1.000000
vt 0.000000 1.000000
vt 0.000000 0.000000
vt 0.750000 0.000000
vt 1.000000 1.000000
s 0
usemtl Main.006
f 20/19/7 21/20/7 18/21/7
f 18/21/7 21/20/7 19/22/7
f 22/23/8 17/22/8 21/24/8
f 21/24/8 17/22/8 19/25/8
